# xmcd CD database file generated by OrangeCD 6.3
#
# Track frame offsets:
#	150
#	3662
#	6247
#	32907
#	48560
#	54303
#	69611
#	79432
#	84432
#	95749
#	103840
#	133012
#	144547
#	152234
#
# Disc length: 2375 seconds
#
# Revision: 0
# Processed by: cddbd v1.5.2PL0 Copyright (c) Steve Scherf et al.
# Submitted via: OrangeCD 6.3
#
DISCID=c309450e
DTITLE=Bernius - Passion selon St Matthieu BWV 244
DYEAR=2016
DGENRE=Musique religieuse
TTITLE0=Choral - O Haupt voll Blut und Wunden...
TTITLE1=Rezitativ - Und da sie ihn verspottet hatten...
TTITLE2=Rezitativ (basse) - Ja freilich will in uns das Fleisch und Blut...
TTITLE3=Arie (basse) - Komm, süßes Kreuz, so will ich sagen...
TTITLE4=Rezitativ - Und da sie an die Stätte kamen mit Namen Golgatha...
TTITLE5=Rezitativ (alto) - Ach Golgatha, unselges Golgatha!...
TTITLE6=Arie (alto) - Sehet, Jesus hat die Hand...
TTITLE7=Rezitativ - Und von der sechsten Stunde an...
TTITLE8=Choral - Wenn ich einmal soll scheiden...
TTITLE9=Rezitativ - Und siehe da, der Vorhang im Tempel zerriss in zwei Stück..
TTITLE9=
TTITLE10=Rezitativ - Am Abend, da es kühle war...
TTITLE11=Arie (basse) - Mache dich, mein Herze, rein...
TTITLE12=Rezitativ - Nun ist der Herr zu Ruh gebracht...
TTITLE13=Chor - Wir setzen uns mit Tränen nieder...
EXTD=
EXTT0=
EXTT1=
EXTT2=
EXTT3=
EXTT4=
EXTT5=
EXTT6=
EXTT7=
EXTT8=
EXTT9=
EXTT10=
EXTT11=
EXTT12=
EXTT13=
PLAYORDER=
